<?xml version="1.0" encoding="utf-8"?>
<svg version="1.0" xmlns="http://www.w3.org/2000/svg" width="192.000000pt" height="192.000000pt" viewBox="0 0 192.000000 192.000000" preserveAspectRatio="xMidYMid meet">
  <g transform="translate(0.000000,192.000000) scale(0.100000,-0.100000)" fill="#000000" stroke="none">
    <path d="M152 1910 c2 -5 79 -86 172 -180 l170 -170 713 0 c392 0 713 3 713 8 0 4 -78 85 -173 180 l-172 172 -713 0 c-457 0 -712 -3 -710 -10z" style="fill: rgb(255, 255, 255);"/>
    <path d="M7 1764 c-11 -11 -9 -1374 3 -1374 5 0 23 44 39 98 16 53 89 290 161 527 l130 429 -163 164 c-89 89 -166 160 -170 156z" style="fill: rgb(255, 255, 255);"/>
    <path d="M519 1368 c0 -2 -94 -307 -208 -678 -114 -371 -205 -678 -201 -683 3 -4 318 -6 699 -5 l693 3 204 660 c111 363 205 670 209 683 l5 22 -700 0 c-385 0 -700 -1 -701 -2z" style="fill: rgb(255, 255, 255);"/>
  </g>
</svg>
